<?xml version="1.0" encoding="UTF-8" standalone="no"?>
<!-- Created with Inkscape (http://www.inkscape.org/) -->

<svg
   xmlns:dc="http://purl.org/dc/elements/1.1/"
   xmlns:cc="http://creativecommons.org/ns#"
   xmlns:rdf="http://www.w3.org/1999/02/22-rdf-syntax-ns#"
   xmlns:svg="http://www.w3.org/2000/svg"
   xmlns="http://www.w3.org/2000/svg"
   xmlns:sodipodi="http://sodipodi.sourceforge.net/DTD/sodipodi-0.dtd"
   xmlns:inkscape="http://www.inkscape.org/namespaces/inkscape"
   id="svg2"
   version="1.1"
   inkscape:version="0.48.4 r9939"
   width="626"
   height="476"
   sodipodi:docname="logo.v.1.0.1.svg">
  <metadata
     id="metadata8">
    <rdf:RDF>
      <cc:Work
         rdf:about="">
        <dc:format>image/svg+xml</dc:format>
        <dc:type
           rdf:resource="http://purl.org/dc/dcmitype/StillImage" />
        <dc:title />
      </cc:Work>
    </rdf:RDF>
  </metadata>
  <defs
     id="defs6" />
  <sodipodi:namedview
     pagecolor="#ffffff"
     bordercolor="#666666"
     borderopacity="1"
     objecttolerance="10"
     gridtolerance="10"
     guidetolerance="10"
     inkscape:pageopacity="0"
     inkscape:pageshadow="2"
     inkscape:window-width="1280"
     inkscape:window-height="1004"
     id="namedview4"
     showgrid="false"
     inkscape:zoom="1.9831933"
     inkscape:cx="160.34208"
     inkscape:cy="177.33908"
     inkscape:window-x="-2"
     inkscape:window-y="-3"
     inkscape:window-maximized="1"
     inkscape:current-layer="svg2" />
  <rect
     style="fill:#525262;fill-opacity:1;stroke:none"
     id="rect3037"
     width="371.52469"
     height="188.09821"
     x="33.872211"
     y="146.54817"
     rx="2.3199999"
     ry="1.2487383" />
  <g
     id="g3807">
    <path
       inkscape:export-ydpi="90"
       inkscape:export-xdpi="90"
       inkscape:export-filename="/home/matus/NetbeansProjects/teamProject_wolfdogs/style/content.main/mLogo.png"
       sodipodi:nodetypes="sssssssssscccsssccsscssssssscsssssssssscssssssssssssscssscccsscscsssccsscsssssccscs"
       inkscape:connector-curvature="0"
       id="path2987"
       d="m 109.57736,126.09266 c 0.87095,-2.38916 4.49086,-5.706 8.33462,-6.34058 7.22711,-1.19318 10.62981,0.2533 18.39432,2.74114 8.70735,2.78994 10.43405,4.33623 16.15802,4.33657 8.03411,4.2e-4 13.76485,-1.78389 18.44697,-5.74376 3.09875,-2.62076 5.17619,-5.79066 6.58213,-10.04351 0.98583,-2.98204 1.37159,-5.4366 0.47682,-3.0339 -0.6036,1.62081 -1.7259,3.33348 -3.07257,4.6888 -4.86981,4.90113 -13.12212,7.22818 -25.8059,-0.0963 -2.49349,-1.4399 -4.61805,-2.14867 -7.33257,-2.51869 -8.63837,-1.1775 -19.79194,3.69621 -18.48166,3.27095 2.84125,-1.36682 5.25773,-2.56763 8.61392,-3.39379 10.40669,-2.6908 13.13626,-0.27247 18.67381,1.60888 2.57915,0.86659 5.68739,1.78041 6.9072,2.03072 5.78422,1.1869 10.3288,0.39178 13.02431,-2.27874 1.74745,-1.73125 1.81507,-2.21519 0.12145,-0.86925 -1.16765,0.92794 -2.74574,1.44158 -4.42913,1.44158 -9.80124,-0.61654 -15.99362,-8.26714 -21.54535,-15.337867 -0.5144,-0.74197 -1.53825,-2.22591 -2.27521,-3.297644 -0.73986,-1.07594 -2.07159,-2.622913 -2.97368,-3.454294 -0.89856,-0.828131 -1.54408,-1.505157 -1.43451,-1.504507 0.10958,6.37e-4 0.53396,0.08756 0.94309,0.193135 0.40912,0.10557 1.1264,0.248563 1.59397,0.317751 0.80421,0.119013 0.76978,0.08406 -0.63759,-0.647261 -1.2917,-0.671222 -3.50362,-2.218455 -4.89444,-3.423646 -0.23722,-0.205563 -1.08494,-1.165714 -1.88383,-2.133672 -0.79889,-0.967957 -1.99155,-2.169742 -2.65037,-2.670638 -2.35653,-1.791674 -6.1031,-3.279742 -9.38022,-4.621276 -4.18243,-1.712124 -8.15781,-4.332743 -10.74736,-5.535164 -3.40211,-1.578272 -6.24543,-3.840916 -8.7083,-6.929844 -1.25936,-1.579481 -2.693594,-4.207874 -2.693594,-4.936304 0,-0.450967 -0.389897,-0.504412 -0.554262,-0.07598 -0.1927,0.502242 0.325122,4.338191 0.906166,6.712853 1.4346,5.863063 3.98466,9.919071 7.86483,13.066281 0.46104,0.373959 0.78376,0.734456 0.71713,0.801103 -0.36347,0.363539 -5.24219,-1.340246 -7.31232,-2.553673 -1.537073,-0.900959 -3.366547,-2.004362 -4.28457,-3.341202 -0.718491,-1.046292 -0.854236,-1.157778 -0.914642,-0.751181 -0.141608,0.953072 1.966544,4.278719 4.215251,6.913814 0.526231,0.616658 0.919271,1.148268 0.873411,1.181367 -0.0459,0.03309 -0.705022,0.360633 -1.464816,0.727845 -1.941811,0.938499 -3.684247,2.417044 -5.449179,4.623902 -1.540285,1.925957 -2.628073,2.868024 -3.311671,2.868024 -0.207856,0 -0.377926,0.07776 -0.377926,0.172803 0,0.327579 1.170251,1.260754 1.753369,1.398156 0.32145,0.07574 0.584457,0.214846 0.584457,0.309119 0,0.09427 -0.635695,0.687278 -1.412657,1.317788 -0.776955,0.630504 -1.518153,1.247598 -1.647098,1.371311 -0.311943,0.299278 -4.008204,3.498294 -8.841897,7.652426 -2.16249,1.85847 -3.962769,3.45332 -4.000625,3.54411 -0.164859,0.39542 1.451643,2.93656 2.619178,4.11735 1.315711,1.33064 2.270432,1.79139 3.74393,1.80682 0.395559,0.004 0.958289,0.14424 1.250521,0.31132 0.292225,0.16709 0.760883,0.30719 1.041461,0.31133 0.280579,0.004 1.024676,0.25932 1.653552,0.56706 0.989361,0.48415 1.335825,0.54567 2.571535,0.45659 1.472459,-0.10614 3.728247,-2.41227 5.351832,-3.03448 2.228842,-0.85417 10.074554,-3.43497 12.331124,-0.73849 2.08032,1.4449 0.42514,8.58571 0.62522,8.25543 0.94793,-6.24636 3.99418,-15.62934 10.72505,-17.662183 -6.41918,2.427573 -10.64182,18.787293 -10.41852,23.101043 0.12604,2.43499 0.42191,3.16865 0.7414,4.32656 0.23677,0.85817 0.47199,2.4593 0.52271,1.65252 0.0507,0.0507 0.30888,-0.50217 0.57371,-1.22866 z M 97.340744,89.586163 c -0.321456,-0.402956 -0.327215,-0.435789 -0.357136,-0.481635 -0.538285,-0.825199 2.114952,-1.96074 3.273012,-2.414665 1.57081,-0.615722 1.84256,-0.643972 1.40701,-0.146275 -0.17905,0.204602 -0.58192,0.698243 -0.81422,1.22436 -0.863743,1.826334 -2.502083,3.042497 -3.508666,1.818215 z M 111.82658,77.456132 c -1.71843,0 -2.38353,-0.247672 -2.84546,-1.059592 -0.19973,-0.351065 -0.4282,-0.638902 -0.5077,-0.639643 -0.17201,-0.0019 0.10372,1.027123 0.44749,1.669607 0.32201,0.601786 0.11595,0.573913 -0.69731,-0.09433 -3.43057,-2.818849 -5.54638,-5.324517 -7.47104,-9.836823 -1.017952,-2.386552 -2.10487,-6.742728 -1.60534,-6.433947 0.09875,0.06104 0.17955,0.235764 0.17955,0.388259 0,0.494812 2.53757,5.450064 3.64276,7.113411 1.87195,3.598443 4.7867,4.720372 7.66747,5.77713 3.36422,1.302856 4.60199,2.318584 4.17659,3.42737 -0.10539,0.274693 -0.20991,0.274752 -0.86621,4.22e-4 -0.4105,-0.171502 -1.36485,-0.311862 -2.1208,-0.311862 z"
       style="fill:#525262;fill-opacity:1" />
    <text
       transform="scale(0.99990001,1.0001)"
       inkscape:export-ydpi="90"
       inkscape:export-xdpi="90"
       inkscape:export-filename="/home/matus/NetbeansProjects/teamProject_wolfdogs/style/content.main/mLogo.png"
       sodipodi:linespacing="125%"
       id="text3776"
       y="74.943199"
       x="190.89601"
       style="font-size:19.71188164px;font-style:normal;font-weight:normal;line-height:125%;letter-spacing:0px;word-spacing:0px;fill:#525262;fill-opacity:1;stroke:none;font-family:Sans"
       xml:space="preserve"><tspan
         style="font-style:normal;font-variant:normal;font-weight:800;font-stretch:normal;fill:#525262;fill-opacity:1;font-family:Open Sans;-inkscape-font-specification:Open Sans Ultra-Bold"
         y="74.943199"
         x="190.89601"
         id="tspan3778"
         sodipodi:role="line"><tspan
           id="tspan3782"
           style="font-weight:300;fill:#525262;fill-opacity:1;-inkscape-font-specification:Open Sans Light">KLUB CHOVATEĽOV </tspan></tspan><tspan
         style="font-style:normal;font-variant:normal;font-weight:800;font-stretch:normal;fill:#525262;fill-opacity:1;font-family:Open Sans;-inkscape-font-specification:Open Sans Ultra-Bold"
         id="tspan3780"
         y="99.583046"
         x="190.89601"
         sodipodi:role="line">ČESKOSLOVENSKÉHO </tspan><tspan
         id="tspan3784"
         style="font-style:normal;font-variant:normal;font-weight:800;font-stretch:normal;fill:#525262;fill-opacity:1;font-family:Open Sans;-inkscape-font-specification:Open Sans Ultra-Bold"
         y="124.2229"
         x="190.89601"
         sodipodi:role="line">VLČIAKA</tspan></text>
  </g>
  <g
     id="g3815"
     transform="matrix(0.61548473,0,0,0.61548473,64.868369,59.813321)"
     inkscape:export-filename="/home/matus/NetbeansProjects/teamProject_wolfdogs/others/kchcsv.png"
     inkscape:export-xdpi="90.077156"
     inkscape:export-ydpi="90.077156">
    <path
       inkscape:export-ydpi="90"
       inkscape:export-xdpi="90"
       inkscape:export-filename="/home/matus/NetbeansProjects/teamProject_wolfdogs/style/content.main/mLogo.png"
       sodipodi:nodetypes="sssssssssscccsssccsscssssssscsssssssssscssssssssssssscssscccsscscsssccsscsssssccscs"
       inkscape:connector-curvature="0"
       id="path2987-0"
       d="m 94.514668,256.39175 c 0.87095,-2.38916 4.490859,-5.706 8.334622,-6.34058 7.22711,-1.19318 10.62981,0.2533 18.39432,2.74114 8.70735,2.78994 10.43405,4.33623 16.15802,4.33657 8.03411,4.2e-4 13.76485,-1.78389 18.44697,-5.74376 3.09875,-2.62076 5.17619,-5.79066 6.58213,-10.04351 0.98583,-2.98204 1.37159,-5.4366 0.47682,-3.0339 -0.6036,1.62081 -1.7259,3.33348 -3.07257,4.6888 -4.86981,4.90113 -13.12212,7.22818 -25.8059,-0.0963 -2.49349,-1.4399 -4.61805,-2.14867 -7.33257,-2.51869 -8.63837,-1.1775 -19.79194,3.69621 -18.48166,3.27095 2.84125,-1.36682 5.25773,-2.56763 8.61392,-3.39379 10.40669,-2.6908 13.13626,-0.27247 18.67381,1.60888 2.57915,0.86659 5.68739,1.78041 6.9072,2.03072 5.78422,1.1869 10.3288,0.39178 13.02431,-2.27874 1.74745,-1.73125 1.81507,-2.21519 0.12145,-0.86925 -1.16765,0.92794 -2.74574,1.44158 -4.42913,1.44158 -9.80124,-0.61654 -15.99362,-8.26714 -21.54535,-15.33787 -0.5144,-0.74197 -1.53825,-2.22591 -2.27521,-3.29765 -0.73986,-1.07594 -2.07159,-2.62291 -2.97368,-3.45429 -0.89856,-0.82813 -1.54408,-1.50516 -1.43451,-1.50451 0.10958,6.4e-4 0.53396,0.0876 0.94309,0.19314 0.40912,0.10557 1.1264,0.24856 1.59397,0.31775 0.80421,0.11901 0.76978,0.0841 -0.63759,-0.64726 -1.2917,-0.67122 -3.50362,-2.21846 -4.89444,-3.42365 -0.23722,-0.20556 -1.08494,-1.16571 -1.88383,-2.13367 -0.79889,-0.96796 -1.99155,-2.16974 -2.65037,-2.67064 -2.35653,-1.79167 -6.1031,-3.27974 -9.38022,-4.62127 -4.18243,-1.71213 -8.157813,-4.33275 -10.747362,-5.53517 -3.40211,-1.57827 -6.24543,-3.84091 -8.7083,-6.92984 -1.25936,-1.57948 -2.693594,-4.20788 -2.693594,-4.93631 0,-0.45096 -0.389897,-0.50441 -0.554262,-0.076 -0.1927,0.50225 0.325122,4.3382 0.906166,6.71286 1.4346,5.86306 3.98466,9.91907 7.86483,13.06628 0.46104,0.37396 0.78376,0.73445 0.71713,0.8011 -0.36347,0.36354 -5.24219,-1.34024 -7.31232,-2.55367 -1.537073,-0.90096 -3.366547,-2.00436 -4.28457,-3.3412 -0.718491,-1.0463 -0.854236,-1.15778 -0.914642,-0.75118 -0.141608,0.95307 1.966544,4.27871 4.215251,6.91381 0.526231,0.61666 0.919271,1.14827 0.873411,1.18137 -0.0459,0.0331 -0.705022,0.36063 -1.464816,0.72784 -1.941811,0.9385 -3.684247,2.41705 -5.449179,4.6239 -1.540285,1.92596 -2.628074,2.86803 -3.311672,2.86803 -0.207856,0 -0.377926,0.0778 -0.377926,0.1728 0,0.32758 1.170251,1.26075 1.753369,1.39816 0.321451,0.0757 0.584458,0.21484 0.584458,0.30912 0,0.0943 -0.635696,0.68727 -1.412658,1.31778 -0.776955,0.63051 -1.518153,1.2476 -1.647098,1.37131 -0.311943,0.29928 -4.008204,3.4983 -8.841897,7.65243 -2.16249,1.85847 -3.962769,3.45333 -4.000625,3.54411 -0.164859,0.39543 1.451643,2.93656 2.619178,4.11736 1.315711,1.33064 2.270432,1.79139 3.74393,1.80682 0.395559,0.004 0.958289,0.14423 1.250521,0.31131 0.292225,0.1671 0.760883,0.3072 1.041461,0.31133 0.280579,0.004 1.024676,0.25932 1.653552,0.56706 0.989361,0.48415 1.335825,0.54567 2.571535,0.45659 1.472459,-0.10613 3.728248,-2.41227 5.351833,-3.03448 2.228842,-0.85416 10.074554,-3.43496 12.331124,-0.73849 2.08032,1.44491 0.42514,8.58572 0.62522,8.25544 0.94793,-6.24636 3.99418,-15.62934 10.725052,-17.66219 -6.419182,2.42757 -10.641822,18.7873 -10.418522,23.10105 0.12604,2.43499 0.42191,3.16865 0.7414,4.32656 0.23677,0.85817 0.47199,2.4593 0.52271,1.65252 0.0507,0.0507 0.30888,-0.50218 0.57371,-1.22867 z m -12.236616,-36.5065 c -0.321456,-0.40296 -0.327215,-0.43579 -0.357136,-0.48164 -0.538285,-0.8252 2.114952,-1.96074 3.273012,-2.41466 1.57081,-0.61572 1.84256,-0.64397 1.40701,-0.14628 -0.17905,0.20461 -0.58192,0.69825 -0.81422,1.22436 -0.863743,1.82634 -2.502083,3.0425 -3.508666,1.81822 z m 14.485835,-12.13003 c -1.718429,0 -2.383529,-0.24767 -2.845459,-1.05959 -0.19973,-0.35107 -0.4282,-0.63891 -0.5077,-0.63965 -0.17201,-0.002 0.10372,1.02713 0.44749,1.66961 0.32201,0.60179 0.11595,0.57391 -0.69731,-0.0943 -3.43057,-2.81885 -5.54638,-5.32452 -7.47104,-9.83682 -1.017952,-2.38656 -2.10487,-6.74273 -1.60534,-6.43395 0.09875,0.061 0.17955,0.23576 0.17955,0.38826 0,0.49481 2.53757,5.45006 3.64276,7.11341 1.87195,3.59844 4.7867,4.72037 7.66747,5.77713 3.364219,1.30286 4.601992,2.31858 4.176589,3.42737 -0.10539,0.27469 -0.20991,0.27475 -0.86621,4.2e-4 -0.4105,-0.1715 -1.36485,-0.31186 -2.1208,-0.31186 z"
       style="fill:#ffffff;fill-opacity:1" />
    <text
       transform="scale(0.99990001,1.0001)"
       inkscape:export-ydpi="90"
       inkscape:export-xdpi="90"
       inkscape:export-filename="/home/matus/NetbeansProjects/teamProject_wolfdogs/style/content.main/mLogo.png"
       sodipodi:linespacing="125%"
       id="text3776-6"
       y="205.22925"
       x="175.8318"
       style="font-size:19.71188164px;font-style:normal;font-weight:normal;line-height:125%;letter-spacing:0px;word-spacing:0px;fill:#ffffff;fill-opacity:1;stroke:none;font-family:Sans"
       xml:space="preserve"><tspan
         style="font-style:normal;font-variant:normal;font-weight:800;font-stretch:normal;fill:#ffffff;fill-opacity:1;font-family:Open Sans;-inkscape-font-specification:Open Sans Ultra-Bold"
         y="205.22925"
         x="175.8318"
         id="tspan3778-3"
         sodipodi:role="line"><tspan
           id="tspan3782-7"
           style="font-weight:300;fill:#ffffff;fill-opacity:1;-inkscape-font-specification:Open Sans Light">KLUB CHOVATEĽOV </tspan></tspan><tspan
         style="font-style:normal;font-variant:normal;font-weight:800;font-stretch:normal;fill:#ffffff;fill-opacity:1;font-family:Open Sans;-inkscape-font-specification:Open Sans Ultra-Bold"
         id="tspan3780-2"
         y="229.86909"
         x="175.8318"
         sodipodi:role="line">ČESKOSLOVENSKÉHO </tspan><tspan
         id="tspan3784-6"
         style="font-style:normal;font-variant:normal;font-weight:800;font-stretch:normal;fill:#ffffff;fill-opacity:1;font-family:Open Sans;-inkscape-font-specification:Open Sans Ultra-Bold"
         y="254.50896"
         x="175.8318"
         sodipodi:role="line">VLČIAKA</tspan></text>
  </g>
  <g
     id="g5638"
     transform="matrix(0.53494602,0,0,0.53494602,-4.3345615,-43.790907)"
     style="fill:#ffffff"
     inkscape:export-filename="/home/matus/NetbeansProjects/teamProject_wolfdogs/others/mcore.png"
     inkscape:export-xdpi="90.077156"
     inkscape:export-ydpi="90.077156">
    <g
       id="g4070"
       transform="translate(178.99195,511.61505)"
       style="fill:#ffffff">
      <path
         style="fill:#ffffff;fill-opacity:1;fill-rule:nonzero;stroke:none"
         d="m 318.28125,13.03125 c -36.92418,0 -66.84375,25.39928 -66.84375,56.75 0,31.35072 29.91957,56.78125 66.84375,56.78125 36.92418,0 66.875,-25.43053 66.875,-56.78125 0,-31.35072 -29.95082,-56.75 -66.875,-56.75 z m 0,5.9375 c 33.05819,0 59.875,22.74423 59.875,50.8125 0,28.06827 -26.81681,50.84375 -59.875,50.84375 -33.05819,0 -59.84375,-22.77548 -59.84375,-50.84375 0,-28.06827 26.78556,-50.8125 59.84375,-50.8125 z"
         id="path2985"
         inkscape:connector-curvature="0" />
      <path
         style="fill:#ffffff;fill-opacity:1;fill-rule:nonzero;stroke:none"
         d="m 393.82107,151.24449 c -18.52119,-22.98274 -37.5617,-46.00683 -55.90625,-68.875 l 55.90625,-68.15625 -60.375,58.0625 -76.96875,-58.40625 c 18.52037,22.9817 37.56471,46.01057 55.90625,68.875 l -55.90625,68.15625 60.375,-58.0625 z"
         id="path3760"
         inkscape:connector-curvature="0"
         sodipodi:nodetypes="ccccccccc" />
      <path
         style="font-size:medium;font-style:normal;font-variant:normal;font-weight:normal;font-stretch:normal;text-indent:0;text-align:start;text-decoration:none;line-height:normal;letter-spacing:normal;word-spacing:normal;text-transform:none;direction:ltr;block-progression:tb;writing-mode:lr-tb;text-anchor:start;baseline-shift:baseline;color:#000000;fill:#ffffff;fill-opacity:1;stroke:none;stroke-width:1px;marker:none;visibility:visible;display:inline;overflow:visible;enable-background:accumulate;font-family:Sans;-inkscape-font-specification:Sans"
         d="m 327.74404,18.91725 c -3.42134,3.56001 -10.16263,10.77924 -10.16263,10.77924 l 11.75967,11.34882 -2.15113,16.82882 3.82065,-17.02937 -9.42891,-11.06565 9.73283,-9.60831 -3.57053,-1.25354 z"
         id="path3769"
         inkscape:connector-curvature="0"
         sodipodi:nodetypes="ccccccccc" />
      <path
         sodipodi:nodetypes="cccccccc"
         inkscape:connector-curvature="0"
         id="path3775"
         d="m 254.05236,74.28613 c 5.45963,-3.48852 16.48048,-10.9283 16.48048,-10.9283 l 11.58422,18.04672 22.20804,1.55321 -22.89478,0.54369 -11.81834,-15.59349 -15.12854,10.05717 c -0.19567,-1.43316 -0.43108,-2.23297 -0.43108,-3.679 z"
         style="font-size:medium;font-style:normal;font-variant:normal;font-weight:normal;font-stretch:normal;text-indent:0;text-align:start;text-decoration:none;line-height:normal;letter-spacing:normal;word-spacing:normal;text-transform:none;direction:ltr;block-progression:tb;writing-mode:lr-tb;text-anchor:start;baseline-shift:baseline;color:#000000;fill:#ffffff;fill-opacity:1;stroke:none;stroke-width:1px;marker:none;visibility:visible;display:inline;overflow:visible;enable-background:accumulate;font-family:Sans;-inkscape-font-specification:Sans" />
    </g>
    <g
       style="fill:#ffffff"
       transform="translate(178.99195,515.20652)"
       id="g4064">
      <text
         xml:space="preserve"
         style="font-size:38.2966423px;font-style:normal;font-variant:normal;font-weight:normal;font-stretch:normal;line-height:125%;letter-spacing:0px;word-spacing:0px;fill:#ffffff;fill-opacity:1;stroke:none;font-family:DejaVu Sans;-inkscape-font-specification:DejaVu Sans"
         x="16.473465"
         y="53.853821"
         id="text4056"
         sodipodi:linespacing="125%"><tspan
           sodipodi:role="line"
           id="tspan4058"
           x="16.473465"
           y="53.853821"
           style="font-style:normal;font-variant:normal;font-weight:500;font-stretch:normal;fill:#ffffff;font-family:DejaVu Sans;-inkscape-font-specification:DejaVu Sans">powered by</tspan></text>
      <text
         xml:space="preserve"
         style="font-size:69.0619278px;font-style:normal;font-variant:normal;font-weight:normal;font-stretch:normal;line-height:125%;letter-spacing:0px;word-spacing:0px;fill:#ffffff;fill-opacity:1;stroke:none;font-family:GFS Baskerville;-inkscape-font-specification:GFS Baskerville"
         x="16.478241"
         y="107.65347"
         id="text4060"
         sodipodi:linespacing="125%"><tspan
           sodipodi:role="line"
           id="tspan4062"
           x="16.478241"
           y="107.65347"
           style="font-style:normal;font-variant:normal;font-weight:900;font-stretch:normal;fill:#ffffff;font-family:JUICE Bold Italic;-inkscape-font-specification:JUICE Bold Italic">mcore</tspan></text>
    </g>
  </g>
</svg>
